<svg xmlns="http://www.w3.org/2000/svg" width="123.9" height="40" viewBox="0 0 123.9 40" y="533">
    <path fill="#FED900" d="M41 36c0 2-1.6 3.6-3.6 3.6H5.3c-2 0-3.6-1.6-3.6-3.6V4C1.7 2 3.3.4 5.3.4h32.1C39.4.4 41 2 41 4v32.1-.1z"/>
    <path d="M18 12.7c-.3 0-.4.1-.7.5C15.5 16 10.5 23.7 9.7 25c-.7 1.1-.9 1.9-.7 2.8.2.8.8 1.4 1.8 1.6.2 0 .5 0 .6-.3 1.3-1.6 8.7-11.5 10-13.3.2-.2.1-.4 0-.6-.3-.5-1.2-1.6-2-2.1-.5-.3-1-.5-1.3-.5H18m16.8 16.1c-1.5-3.3-9-18.6-10.6-22.1-.8-1.8-1.7-4.1-2.5-6.2h-9.2c.1 3.1.2 4.7-.3 6.2-.9 2.6-3.7 5.3-5.7 7.4-.7.7 2.1 2.7 5 .4 1.1-.8 2.8-2.5 4.1-3.6.6-.5 1.4-.7 2.2-.6 1.1.2 1.9.7 2.7 1.6.8 1 1.6 2.3 2.6 4 2 3.2 4.1 6.8 6.5 10.5 1.2 1.9 2.8 2.7 5 2.6.2 0 .2-.1.2-.3M70.8 5c.5-.7 1-1 1.7-1s1.2.2 1.6.6c.4.4.5.8.5 1.4s-.1 1-.4 1.4l-10.8 15V34c0 .6-.2 1.1-.6 1.4-.4.4-.9.6-1.5.6s-1.1-.2-1.5-.6c-.4-.4-.6-.9-.6-1.5V22.4L48.5 7.3c-.2-.4-.4-.8-.4-1.4s.2-1 .5-1.4c.4-.4.9-.6 1.6-.6.7 0 1.2.4 1.7 1l9.5 13.8 9.5-13.8-.1.1zm6.1 25.6c1.3 1.2 3.1 1.8 5.4 1.8s4.3-.4 5.8-1.2c.5-.3 1-.4 1.4-.4.4 0 .8.2 1.1.5.4.3.5.7.5 1.1 0 .8-.3 1.4-1 1.7-.6.3-1.2.6-1.7.9-.5.2-1.1.4-1.7.6-1.4.4-2.9.6-4.7.6-3.7 0-6.6-1-8.6-3.1-2.1-2.1-3.1-5-3.1-8.9 0-3.3.9-6.1 2.6-8.3 1.9-2.5 4.7-3.7 8.2-3.7 3.4 0 6.1 1.1 8 3.4 1.8 2.1 2.8 4.8 2.8 8 0 .6-.2 1.1-.6 1.4-.4.4-.9.6-1.5.6H74.6c.2 2 1 3.7 2.3 4.9m4.4-14.8c-2.7 0-4.6 1.2-5.9 3.6-.5.8-.7 1.9-.8 3H88c-.1-2.1-.9-3.8-2.4-5.1-1.2-1-2.7-1.5-4.3-1.5M96.5 3.1c.4-.4.9-.6 1.5-.6s1.1.2 1.5.6c.4.4.6.9.6 1.5V34c0 .6-.2 1.1-.6 1.4-.4.4-.9.6-1.5.6s-1.1-.2-1.5-.6c-.4-.4-.6-.9-.6-1.4V4.6c0-.6.2-1.1.6-1.5m8.9 0c.4-.4.9-.6 1.5-.6s1.1.2 1.5.6c.4.4.6.9.6 1.5V34c0 .6-.2 1.1-.6 1.5-.4.4-.9.6-1.5.6s-1.1-.2-1.5-.6c-.4-.4-.6-.9-.6-1.4V4.6c0-.6.2-1.1.6-1.5M5.3 32.4v.1c0 1.9 1.6 3.5 3.5 3.5h25c1.9 0 3.5-1.6 3.6-3.5v-.1H5.3zm111.2.2s.1.1.1.2 0 .1-.1.2l-.1.1h-1V36c0 .1 0 .1-.1.2 0 0-.1.1-.2.1s-.1 0-.2-.1c0 0-.1-.1-.1-.2v-2.9h-1c-.1 0-.1 0-.1-.1l-.1-.1c0-.1 0-.1.1-.1s.1-.1.1-.1h2.5c.1 0 .1 0 .2.1m4.4-.1c.1.1.1.1.1.2v3c0 .1 0 .1-.1.2 0 0-.1.1-.2.1s-.1 0-.2-.1-.1-.1-.1-.2V33l-1.2 2.9c0 .1-.1.1-.1.2-.1 0-.1.1-.2.1s-.1 0-.2-.1c-.1 0-.1-.1-.1-.2l-1.2-2.9v2.9c0 .1 0 .1-.1.2 0 0-.1.1-.2.1s-.1 0-.2-.1c0 0-.1-.1-.1-.2v-3c0-.1 0-.2.1-.2.1-.1.1-.1.2-.1h.2c.1 0 .1 0 .2.1.1 0 .1.1.1.1l1.1 2.8 1.1-2.8c0-.1.1-.1.1-.1.1 0 .1-.1.2-.1h.2c.1 0 .2 0 .2.1"/>
  </svg>