<?xml version='1.0' encoding='UTF-8'?>
<svg width="37mm" height="37mm" version="1.1" viewBox="0 0 37 37" xmlns="http://www.w3.org/2000/svg"><path d="M2,2H3V3H2zM3,2H4V3H3zM4,2H5V3H4zM5,2H6V3H5zM6,2H7V3H6zM7,2H8V3H7zM8,2H9V3H8zM12,2H13V3H12zM13,2H14V3H13zM14,2H15V3H14zM17,2H18V3H17zM20,2H21V3H20zM21,2H22V3H21zM23,2H24V3H23zM24,2H25V3H24zM25,2H26V3H25zM28,2H29V3H28zM29,2H30V3H29zM30,2H31V3H30zM31,2H32V3H31zM32,2H33V3H32zM33,2H34V3H33zM34,2H35V3H34zM2,3H3V4H2zM8,3H9V4H8zM13,3H14V4H13zM14,3H15V4H14zM17,3H18V4H17zM18,3H19V4H18zM19,3H20V4H19zM25,3H26V4H25zM26,3H27V4H26zM28,3H29V4H28zM34,3H35V4H34zM2,4H3V5H2zM4,4H5V5H4zM5,4H6V5H5zM6,4H7V5H6zM8,4H9V5H8zM11,4H12V5H11zM12,4H13V5H12zM13,4H14V5H13zM16,4H17V5H16zM17,4H18V5H17zM19,4H20V5H19zM21,4H22V5H21zM22,4H23V5H22zM24,4H25V5H24zM25,4H26V5H25zM28,4H29V5H28zM30,4H31V5H30zM31,4H32V5H31zM32,4H33V5H32zM34,4H35V5H34zM2,5H3V6H2zM4,5H5V6H4zM5,5H6V6H5zM6,5H7V6H6zM8,5H9V6H8zM11,5H12V6H11zM12,5H13V6H12zM14,5H15V6H14zM15,5H16V6H15zM19,5H20V6H19zM23,5H24V6H23zM28,5H29V6H28zM30,5H31V6H30zM31,5H32V6H31zM32,5H33V6H32zM34,5H35V6H34zM2,6H3V7H2zM4,6H5V7H4zM5,6H6V7H5zM6,6H7V7H6zM8,6H9V7H8zM11,6H12V7H11zM12,6H13V7H12zM13,6H14V7H13zM14,6H15V7H14zM15,6H16V7H15zM18,6H19V7H18zM21,6H22V7H21zM25,6H26V7H25zM28,6H29V7H28zM30,6H31V7H30zM31,6H32V7H31zM32,6H33V7H32zM34,6H35V7H34zM2,7H3V8H2zM8,7H9V8H8zM10,7H11V8H10zM11,7H12V8H11zM14,7H15V8H14zM15,7H16V8H15zM19,7H20V8H19zM22,7H23V8H22zM23,7H24V8H23zM26,7H27V8H26zM28,7H29V8H28zM34,7H35V8H34zM2,8H3V9H2zM3,8H4V9H3zM4,8H5V9H4zM5,8H6V9H5zM6,8H7V9H6zM7,8H8V9H7zM8,8H9V9H8zM10,8H11V9H10zM12,8H13V9H12zM14,8H15V9H14zM16,8H17V9H16zM18,8H19V9H18zM20,8H21V9H20zM22,8H23V9H22zM24,8H25V9H24zM26,8H27V9H26zM28,8H29V9H28zM29,8H30V9H29zM30,8H31V9H30zM31,8H32V9H31zM32,8H33V9H32zM33,8H34V9H33zM34,8H35V9H34zM11,9H12V10H11zM14,9H15V10H14zM16,9H17V10H16zM19,9H20V10H19zM20,9H21V10H20zM21,9H22V10H21zM22,9H23V10H22zM23,9H24V10H23zM25,9H26V10H25zM2,10H3V11H2zM5,10H6V11H5zM7,10H8V11H7zM8,10H9V11H8zM10,10H11V11H10zM13,10H14V11H13zM14,10H15V11H14zM15,10H16V11H15zM16,10H17V11H16zM17,10H18V11H17zM18,10H19V11H18zM21,10H22V11H21zM23,10H24V11H23zM26,10H27V11H26zM27,10H28V11H27zM29,10H30V11H29zM2,11H3V12H2zM4,11H5V12H4zM5,11H6V12H5zM6,11H7V12H6zM7,11H8V12H7zM9,11H10V12H9zM10,11H11V12H10zM11,11H12V12H11zM22,11H23V12H22zM26,11H27V12H26zM27,11H28V12H27zM28,11H29V12H28zM29,11H30V12H29zM34,11H35V12H34zM2,12H3V13H2zM4,12H5V13H4zM5,12H6V13H5zM7,12H8V13H7zM8,12H9V13H8zM9,12H10V13H9zM10,12H11V13H10zM13,12H14V13H13zM18,12H19V13H18zM19,12H20V13H19zM21,12H22V13H21zM23,12H24V13H23zM24,12H25V13H24zM26,12H27V13H26zM28,12H29V13H28zM29,12H30V13H29zM30,12H31V13H30zM32,12H33V13H32zM34,12H35V13H34zM2,13H3V14H2zM3,13H4V14H3zM6,13H7V14H6zM10,13H11V14H10zM12,13H13V14H12zM13,13H14V14H13zM16,13H17V14H16zM18,13H19V14H18zM19,13H20V14H19zM21,13H22V14H21zM22,13H23V14H22zM25,13H26V14H25zM26,13H27V14H26zM27,13H28V14H27zM28,13H29V14H28zM30,13H31V14H30zM31,13H32V14H31zM34,13H35V14H34zM2,14H3V15H2zM3,14H4V15H3zM4,14H5V15H4zM5,14H6V15H5zM6,14H7V15H6zM8,14H9V15H8zM9,14H10V15H9zM10,14H11V15H10zM11,14H12V15H11zM12,14H13V15H12zM17,14H18V15H17zM25,14H26V15H25zM26,14H27V15H26zM27,14H28V15H27zM28,14H29V15H28zM29,14H30V15H29zM31,14H32V15H31zM34,14H35V15H34zM2,15H3V16H2zM3,15H4V16H3zM4,15H5V16H4zM6,15H7V16H6zM7,15H8V16H7zM9,15H10V16H9zM12,15H13V16H12zM13,15H14V16H13zM15,15H16V16H15zM17,15H18V16H17zM18,15H19V16H18zM24,15H25V16H24zM26,15H27V16H26zM28,15H29V16H28zM30,15H31V16H30zM31,15H32V16H31zM33,15H34V16H33zM34,15H35V16H34zM2,16H3V17H2zM6,16H7V17H6zM7,16H8V17H7zM8,16H9V17H8zM9,16H10V17H9zM10,16H11V17H10zM11,16H12V17H11zM12,16H13V17H12zM14,16H15V17H14zM15,16H16V17H15zM19,16H20V17H19zM22,16H23V17H22zM23,16H24V17H23zM25,16H26V17H25zM27,16H28V17H27zM28,16H29V17H28zM29,16H30V17H29zM30,16H31V17H30zM31,16H32V17H31zM32,16H33V17H32zM33,16H34V17H33zM2,17H3V18H2zM4,17H5V18H4zM5,17H6V18H5zM7,17H8V18H7zM9,17H10V18H9zM10,17H11V18H10zM14,17H15V18H14zM16,17H17V18H16zM17,17H18V18H17zM19,17H20V18H19zM21,17H22V18H21zM23,17H24V18H23zM26,17H27V18H26zM28,17H29V18H28zM30,17H31V18H30zM33,17H34V18H33zM2,18H3V19H2zM4,18H5V19H4zM5,18H6V19H5zM8,18H9V19H8zM9,18H10V19H9zM13,18H14V19H13zM14,18H15V19H14zM16,18H17V19H16zM19,18H20V19H19zM21,18H22V19H21zM22,18H23V19H22zM23,18H24V19H23zM24,18H25V19H24zM25,18H26V19H25zM26,18H27V19H26zM28,18H29V19H28zM30,18H31V19H30zM31,18H32V19H31zM33,18H34V19H33zM2,19H3V20H2zM5,19H6V20H5zM10,19H11V20H10zM11,19H12V20H11zM16,19H17V20H16zM18,19H19V20H18zM20,19H21V20H20zM23,19H24V20H23zM25,19H26V20H25zM29,19H30V20H29zM31,19H32V20H31zM33,19H34V20H33zM2,20H3V21H2zM4,20H5V21H4zM5,20H6V21H5zM6,20H7V21H6zM7,20H8V21H7zM8,20H9V21H8zM9,20H10V21H9zM11,20H12V21H11zM13,20H14V21H13zM14,20H15V21H14zM15,20H16V21H15zM20,20H21V21H20zM22,20H23V21H22zM24,20H25V21H24zM27,20H28V21H27zM32,20H33V21H32zM33,20H34V21H33zM34,20H35V21H34zM4,21H5V22H4zM6,21H7V22H6zM7,21H8V22H7zM9,21H10V22H9zM11,21H12V22H11zM12,21H13V22H12zM16,21H17V22H16zM18,21H19V22H18zM19,21H20V22H19zM20,21H21V22H20zM21,21H22V22H21zM22,21H23V22H22zM23,21H24V22H23zM26,21H27V22H26zM27,21H28V22H27zM28,21H29V22H28zM29,21H30V22H29zM33,21H34V22H33zM34,21H35V22H34zM3,22H4V23H3zM8,22H9V23H8zM9,22H10V23H9zM10,22H11V23H10zM14,22H15V23H14zM18,22H19V23H18zM19,22H20V23H19zM20,22H21V23H20zM24,22H25V23H24zM25,22H26V23H25zM26,22H27V23H26zM33,22H34V23H33zM34,22H35V23H34zM4,23H5V24H4zM5,23H6V24H5zM6,23H7V24H6zM9,23H10V24H9zM12,23H13V24H12zM14,23H15V24H14zM16,23H17V24H16zM17,23H18V24H17zM18,23H19V24H18zM19,23H20V24H19zM20,23H21V24H20zM21,23H22V24H21zM22,23H23V24H22zM23,23H24V24H23zM24,23H25V24H24zM26,23H27V24H26zM27,23H28V24H27zM28,23H29V24H28zM29,23H30V24H29zM31,23H32V24H31zM33,23H34V24H33zM34,23H35V24H34zM2,24H3V25H2zM3,24H4V25H3zM4,24H5V25H4zM6,24H7V25H6zM8,24H9V25H8zM9,24H10V25H9zM10,24H11V25H10zM16,24H17V25H16zM17,24H18V25H17zM22,24H23V25H22zM26,24H27V25H26zM28,24H29V25H28zM29,24H30V25H29zM32,24H33V25H32zM34,24H35V25H34zM3,25H4V26H3zM5,25H6V26H5zM6,25H7V26H6zM7,25H8V26H7zM9,25H10V26H9zM12,25H13V26H12zM14,25H15V26H14zM16,25H17V26H16zM18,25H19V26H18zM20,25H21V26H20zM23,25H24V26H23zM24,25H25V26H24zM25,25H26V26H25zM29,25H30V26H29zM30,25H31V26H30zM31,25H32V26H31zM34,25H35V26H34zM2,26H3V27H2zM4,26H5V27H4zM5,26H6V27H5zM8,26H9V27H8zM9,26H10V27H9zM10,26H11V27H10zM14,26H15V27H14zM17,26H18V27H17zM18,26H19V27H18zM19,26H20V27H19zM21,26H22V27H21zM23,26H24V27H23zM25,26H26V27H25zM26,26H27V27H26zM27,26H28V27H27zM28,26H29V27H28zM29,26H30V27H29zM30,26H31V27H30zM33,26H34V27H33zM10,27H11V28H10zM11,27H12V28H11zM13,27H14V28H13zM14,27H15V28H14zM21,27H22V28H21zM22,27H23V28H22zM24,27H25V28H24zM26,27H27V28H26zM30,27H31V28H30zM31,27H32V28H31zM34,27H35V28H34zM2,28H3V29H2zM3,28H4V29H3zM4,28H5V29H4zM5,28H6V29H5zM6,28H7V29H6zM7,28H8V29H7zM8,28H9V29H8zM11,28H12V29H11zM12,28H13V29H12zM14,28H15V29H14zM18,28H19V29H18zM23,28H24V29H23zM26,28H27V29H26zM28,28H29V29H28zM30,28H31V29H30zM31,28H32V29H31zM32,28H33V29H32zM2,29H3V30H2zM8,29H9V30H8zM10,29H11V30H10zM12,29H13V30H12zM14,29H15V30H14zM15,29H16V30H15zM16,29H17V30H16zM18,29H19V30H18zM21,29H22V30H21zM22,29H23V30H22zM26,29H27V30H26zM30,29H31V30H30zM34,29H35V30H34zM2,30H3V31H2zM4,30H5V31H4zM5,30H6V31H5zM6,30H7V31H6zM8,30H9V31H8zM11,30H12V31H11zM12,30H13V31H12zM13,30H14V31H13zM14,30H15V31H14zM15,30H16V31H15zM16,30H17V31H16zM17,30H18V31H17zM18,30H19V31H18zM21,30H22V31H21zM24,30H25V31H24zM26,30H27V31H26zM27,30H28V31H27zM28,30H29V31H28zM29,30H30V31H29zM30,30H31V31H30zM31,30H32V31H31zM33,30H34V31H33zM2,31H3V32H2zM4,31H5V32H4zM5,31H6V32H5zM6,31H7V32H6zM8,31H9V32H8zM10,31H11V32H10zM11,31H12V32H11zM12,31H13V32H12zM13,31H14V32H13zM15,31H16V32H15zM17,31H18V32H17zM21,31H22V32H21zM22,31H23V32H22zM25,31H26V32H25zM26,31H27V32H26zM28,31H29V32H28zM30,31H31V32H30zM31,31H32V32H31zM32,31H33V32H32zM33,31H34V32H33zM2,32H3V33H2zM4,32H5V33H4zM5,32H6V33H5zM6,32H7V33H6zM8,32H9V33H8zM11,32H12V33H11zM12,32H13V33H12zM14,32H15V33H14zM16,32H17V33H16zM19,32H20V33H19zM20,32H21V33H20zM23,32H24V33H23zM25,32H26V33H25zM26,32H27V33H26zM27,32H28V33H27zM30,32H31V33H30zM32,32H33V33H32zM34,32H35V33H34zM2,33H3V34H2zM8,33H9V34H8zM12,33H13V34H12zM15,33H16V34H15zM17,33H18V34H17zM18,33H19V34H18zM19,33H20V34H19zM23,33H24V34H23zM24,33H25V34H24zM25,33H26V34H25zM26,33H27V34H26zM27,33H28V34H27zM28,33H29V34H28zM2,34H3V35H2zM3,34H4V35H3zM4,34H5V35H4zM5,34H6V35H5zM6,34H7V35H6zM7,34H8V35H7zM8,34H9V35H8zM10,34H11V35H10zM13,34H14V35H13zM15,34H16V35H15zM18,34H19V35H18zM20,34H21V35H20zM23,34H24V35H23zM26,34H27V35H26zM27,34H28V35H27zM30,34H31V35H30zM33,34H34V35H33z" id="qr-path" fill="#000000" fill-opacity="1" fill-rule="nonzero" stroke="none"/></svg>